<svg width="200" height="200" viewBox="0 0 200 200" fill="none" xmlns="http://www.w3.org/2000/svg">
<rect width="200" height="200" fill="#1E1E1E"/>
<rect width="200" height="200" fill="url(#paint0_linear_0_1)"/>
<path d="M61.448 181V112.4H90.358C94.67 112.4 98.59 113.38 102.118 115.34C105.646 117.235 108.455 119.913 110.546 123.376C112.637 126.839 113.682 130.889 113.682 135.528C113.682 139.971 112.637 143.956 110.546 147.484C108.521 150.947 105.744 153.658 102.216 155.618C98.688 157.578 94.67 158.558 90.162 158.558H70.856V181H61.448ZM70.856 150.228H89.084C91.8933 150.228 94.4413 149.673 96.728 148.562C99.08 147.386 100.909 145.687 102.216 143.466C103.588 141.245 104.274 138.599 104.274 135.528C104.274 132.392 103.588 129.746 102.216 127.59C100.844 125.369 99.0147 123.67 96.728 122.494C94.4413 121.318 91.926 120.73 89.182 120.73H70.856V150.228ZM124.995 181V112.4H162.235C165.698 112.4 168.736 113.184 171.349 114.752C173.962 116.255 176.02 118.313 177.523 120.926C179.026 123.539 179.777 126.512 179.777 129.844C179.777 132.131 179.287 134.352 178.307 136.508C177.392 138.599 176.086 140.428 174.387 141.996C172.688 143.564 170.663 144.74 168.311 145.524C170.99 146.177 173.309 147.353 175.269 149.052C177.229 150.751 178.764 152.776 179.875 155.128C181.051 157.48 181.639 160.028 181.639 162.772C181.639 166.169 180.855 169.24 179.287 171.984C177.719 174.728 175.53 176.917 172.721 178.55C169.977 180.183 166.678 181 162.823 181H124.995ZM134.403 172.67H160.667C163.084 172.67 165.142 172.147 166.841 171.102C168.54 169.991 169.846 168.587 170.761 166.888C171.741 165.124 172.231 163.262 172.231 161.302C172.231 159.277 171.741 157.447 170.761 155.814C169.781 154.115 168.409 152.743 166.645 151.698C164.881 150.587 162.79 150.032 160.373 150.032H134.403V172.67ZM134.403 142.094H159.001C161.288 142.094 163.28 141.604 164.979 140.624C166.743 139.579 168.082 138.239 168.997 136.606C169.977 134.907 170.467 133.143 170.467 131.314C170.467 129.419 170.01 127.688 169.095 126.12C168.18 124.487 166.906 123.18 165.273 122.2C163.64 121.22 161.745 120.73 159.589 120.73H134.403V142.094Z" fill="white"/>
<defs>
<linearGradient id="paint0_linear_0_1" x1="0" y1="0" x2="200" y2="200" gradientUnits="userSpaceOnUse">
<stop stop-color="#00A1C5"/>
<stop offset="1" stop-color="#00596C"/>
</linearGradient>
</defs>
</svg>
